<?xml version="1.0" encoding="utf-8"?><svg xmlns="http://www.w3.org/2000/svg" xmlns:xlink="http://www.w3.org/1999/xlink"><symbol fill="none" viewBox="0 0 23 24" id="moon-icon" xmlns="http://www.w3.org/2000/svg"><path d="M22.19 17.366a.802.802 0 00-.892-.248 8.463 8.463 0 01-2.866.482c-4.852 0-8.8-3.949-8.8-8.8a8.773 8.773 0 013.856-7.274.801.801 0 00-.334-1.454A7.766 7.766 0 0012.032 0c-6.617 0-12 5.382-12 12s5.383 12 12 12c4.2 0 8.021-2.134 10.218-5.709a.805.805 0 00-.06-.925z" fill="#fff"/></symbol><symbol viewBox="25 25 50 50" id="preloader" xmlns="http://www.w3.org/2000/svg"><circle cx="50" cy="50" r="20" fill="none" stroke-width="5" stroke="#45d6b5" stroke-linecap="round" stroke-dasharray="100, 200"><animateTransform attributeName="transform" attributeType="XML" type="rotate" from="0 50 50" to="360 50 50" dur="2.5s" repeatCount="indefinite"/><animate attributeName="stroke-dashoffset" values="0;-30;-124" dur="1.25s" repeatCount="indefinite"/><animate attributeName="stroke-dasharray" values="0,200;110,200;110,200" dur="1.25s" repeatCount="indefinite"/></circle></symbol><symbol fill="none" viewBox="0 0 24 24" id="sun-icon" xmlns="http://www.w3.org/2000/svg"><path d="M11.78 19.416c.594 0 1.083.45 1.146 1.026l.006.126v1.842a1.151 1.151 0 01-2.296.125l-.007-.125v-1.842c0-.636.516-1.152 1.152-1.152zm-5.399-2.235a1.15 1.15 0 01.09 1.527l-.09.1-1.302 1.303a1.152 1.152 0 01-1.718-1.527l.09-.1 1.302-1.303a1.15 1.15 0 011.628 0zm12.427 0l1.303 1.303a1.15 1.15 0 11-1.628 1.627L17.18 18.81a1.15 1.15 0 111.628-1.628zM11.781 5.879a5.909 5.909 0 015.901 5.902 5.909 5.909 0 01-5.901 5.902 5.908 5.908 0 01-5.902-5.902 5.908 5.908 0 015.902-5.902zm10.63 4.75a1.151 1.151 0 110 2.303h-1.843a1.15 1.15 0 110-2.303h1.842zm-19.418 0a1.151 1.151 0 01.126 2.296l-.125.007H1.15a1.15 1.15 0 01-.125-2.296l.125-.007h1.842zm1.985-7.268l.1.09 1.303 1.302a1.151 1.151 0 01-1.528 1.718l-.1-.09L3.45 5.08A1.15 1.15 0 014.978 3.36zm15.133.09c.45.449.45 1.178 0 1.628L18.808 6.38a1.151 1.151 0 11-1.628-1.628l1.303-1.303c.449-.449 1.178-.449 1.628 0zM11.781 0c.636 0 1.151.515 1.151 1.151v1.843a1.152 1.152 0 01-2.303 0V1.15C10.63.515 11.145 0 11.781 0z" fill="#fff"/></symbol></svg>