<?xml version="1.0" encoding="utf-8"?><svg xmlns="http://www.w3.org/2000/svg" xmlns:xlink="http://www.w3.org/1999/xlink"><symbol viewBox="0 0 18 18" id="update-icon" xmlns="http://www.w3.org/2000/svg"><path fill-rule="evenodd" clip-rule="evenodd" d="M13 4.765l-2.312 2.212a.208.208 0 00.147.356h6.498V1.104a.209.209 0 00-.355-.146l-2.173 2.08a8.32 8.32 0 00-13.76 3.476l2.386.746A5.825 5.825 0 0113 4.765zm-5.62 6.03a.208.208 0 00-.192-.128H.667v6.148a.208.208 0 00.356.147l2.148-2.021a8.322 8.322 0 0013.785-3.455l-2.387-.746a5.826 5.826 0 01-9.578 2.488l2.344-2.206c.06-.06.078-.15.045-.227z"/></symbol></svg>